<?xml version="1.0" standalone="no"?>
<!DOCTYPE svg PUBLIC "-//W3C//DTD SVG 20010904//EN"
 "http://www.w3.org/TR/2001/REC-SVG-20010904/DTD/svg10.dtd">
<svg version="1.0" xmlns="http://www.w3.org/2000/svg"
 width="500.000000pt" height="500.000000pt" viewBox="0 0 500.000000 500.000000"
 preserveAspectRatio="xMidYMid meet">

<g transform="translate(0.000000,500.000000) scale(0.100000,-0.100000)"
fill="#000000" stroke="none">
<path d="M2532 4629 c2 -6 8 -10 13 -10 5 0 11 4 13 10 2 6 -4 11 -13 11 -9 0
-15 -5 -13 -11z"/>
<path d="M2417 4469 c-184 -21 -375 -78 -540 -160 -461 -229 -806 -677 -912
-1184 -9 -44 -19 -135 -22 -202 -4 -86 -10 -126 -19 -134 -18 -15 -18 -59 0
-84 7 -11 16 -54 20 -96 8 -93 44 -244 86 -364 200 -563 732 -993 1334 -1076
83 -12 90 -11 102 6 20 27 17 43 -11 70 -19 20 -34 25 -74 25 -66 0 -97 13
-116 49 -19 39 -19 54 3 80 13 16 136 71 158 71 2 0 10 -13 18 -29 15 -28 14
-30 -10 -46 -35 -22 -29 -60 14 -86 l32 -21 0 71 0 71 60 0 60 0 0 -64 c0 -36
4 -67 8 -70 13 -8 72 44 72 64 0 11 -11 27 -25 36 -30 19 -31 25 -7 53 l17 21
62 -23 c34 -12 71 -31 82 -41 28 -25 27 -68 -2 -102 -19 -22 -34 -27 -89 -33
-76 -8 -108 -29 -108 -72 0 -37 20 -42 122 -29 564 70 1062 443 1294 969 52
120 109 330 123 456 5 50 17 105 26 122 14 29 15 36 2 65 -8 18 -20 92 -26
164 -47 571 -400 1092 -921 1358 -173 89 -356 143 -565 166 -101 11 -149 11
-248 -1z m167 -15 c9 -3 16 -12 16 -20 0 -10 -15 -14 -55 -14 -41 0 -55 4 -55
14 0 8 6 17 13 19 18 8 63 8 81 1z m-64 -104 c0 -43 36 -42 45 1 l7 32 107 -6
c304 -16 650 -183 916 -443 45 -44 105 -110 134 -149 l52 -70 -28 -22 c-15
-13 -31 -23 -35 -23 -5 0 -8 -7 -8 -15 0 -26 28 -28 61 -4 l32 23 22 -29 c33
-41 108 -187 150 -293 36 -93 90 -306 81 -321 -3 -4 -148 -11 -323 -15 -175
-4 -322 -11 -327 -16 -5 -5 -6 -16 -3 -24 5 -14 45 -15 337 -9 l330 6 0 -85
c0 -116 3 -115 -220 -99 -93 6 -249 21 -346 31 -97 11 -180 17 -185 14 -15 -9
-10 -32 9 -38 31 -10 254 -34 476 -52 272 -22 272 -22 262 -128 -4 -39 -11
-87 -15 -106 -5 -19 -12 -47 -15 -62 -6 -26 -7 -27 -39 -14 -17 7 -65 26 -105
41 l-73 27 7 33 c12 66 -53 134 -115 120 -16 -3 -40 -19 -55 -34 l-27 -29
-114 44 c-128 49 -145 52 -145 25 0 -19 66 -52 199 -97 29 -11 56 -26 59 -34
3 -8 16 -27 30 -42 22 -24 34 -28 78 -28 48 0 87 -12 261 -80 l22 -9 -30 -88
c-70 -209 -193 -405 -359 -573 -80 -81 -223 -200 -240 -200 -3 0 -4 59 -2 131
2 76 -3 182 -12 257 -9 70 -16 165 -16 209 0 45 -9 131 -21 190 -15 79 -21
152 -22 269 -2 160 -2 161 -32 210 -43 69 -104 107 -217 134 -175 42 -286 108
-327 194 -25 51 -26 78 -5 166 12 48 22 70 35 73 23 6 41 73 37 135 -3 40 -6
47 -26 50 -21 3 -22 7 -16 55 19 138 5 180 -62 193 -21 4 -36 13 -40 26 -3 10
-21 27 -40 36 -33 15 -41 15 -115 0 -108 -23 -183 -58 -209 -100 -25 -42 -25
-69 0 -101 12 -16 20 -40 20 -65 0 -34 -3 -41 -22 -44 -21 -3 -23 -8 -23 -63
1 -78 11 -112 34 -120 21 -6 51 -107 51 -170 0 -112 -115 -203 -334 -264 -151
-42 -195 -73 -238 -166 -20 -46 -22 -63 -20 -199 1 -107 -3 -169 -14 -215 -18
-78 -44 -383 -53 -635 l-6 -179 -78 62 c-192 153 -352 352 -449 557 -45 98
-90 223 -83 234 3 4 53 27 112 50 320 126 517 218 521 243 6 28 -23 21 -192
-52 -246 -106 -456 -189 -460 -182 -7 12 -35 147 -41 201 -10 80 3 89 152 105
l118 14 27 -29 c50 -52 95 -52 146 1 26 27 45 34 149 55 126 25 163 37 163 54
0 22 -33 21 -156 -3 l-128 -24 -32 33 c-20 22 -41 34 -58 34 -36 0 -83 -25
-91 -49 -7 -23 -24 -28 -142 -37 -66 -5 -102 -3 -123 6 -29 12 -30 14 -30 84
0 39 4 77 9 85 8 12 60 13 331 8 282 -5 322 -4 327 9 3 8 2 19 -3 24 -5 5
-152 12 -327 16 -175 4 -319 10 -321 13 -7 13 34 181 69 281 36 102 127 290
164 339 l18 24 32 -22 c32 -23 61 -22 61 2 0 7 -13 21 -30 30 -16 10 -30 24
-30 32 0 32 195 247 305 334 185 148 379 246 593 300 98 25 119 28 220 30 l82
1 0 -30z m86 -686 c27 -18 44 -56 44 -100 0 -28 -8 -44 -34 -70 -29 -29 -41
-34 -79 -34 -74 0 -127 61 -113 133 7 36 48 82 81 90 27 7 75 -3 101 -19z
m-18 -262 c-4 -19 -74 -30 -90 -14 -17 17 -2 27 47 29 38 1 46 -1 43 -15z
m-98 -52 c23 -12 16 -40 -9 -40 -20 0 -41 19 -41 37 0 16 24 17 50 3z m155 0
c9 -15 -13 -40 -35 -40 -10 0 -23 6 -29 14 -10 11 -8 17 6 25 23 13 50 14 58
1z m-81 -26 c8 -21 -1 -34 -23 -34 -24 0 -30 8 -24 31 6 23 38 25 47 3z m-71
-61 c20 -6 22 -14 5 -31 -16 -16 -43 -15 -58 3 -17 21 -5 49 18 40 9 -4 25
-10 35 -12z m162 -8 c0 -25 -30 -43 -52 -29 -27 17 -25 29 4 41 36 14 48 11
48 -12z m-91 -11 c11 -28 7 -34 -24 -34 -33 0 -35 3 -20 31 13 23 36 25 44 3z
m-91 -63 c32 -17 34 -27 7 -41 -25 -14 -60 3 -60 29 0 19 10 33 19 28 3 -1 18
-9 34 -16z m193 -2 c3 -6 -3 -20 -14 -32 -18 -18 -25 -19 -47 -9 -31 14 -32
26 -2 40 29 14 54 15 63 1z m-98 -36 c3 -20 -1 -23 -27 -23 -32 0 -36 6 -25
35 10 24 48 15 52 -12z m-68 -69 c0 -2 -11 -11 -25 -20 -24 -16 -27 -16 -45 1
-22 20 -26 51 -8 57 11 4 78 -29 78 -38z m175 25 c9 -14 -24 -49 -45 -49 -17
0 -47 27 -39 34 30 24 74 33 84 15z m-106 -31 c11 -30 6 -38 -30 -38 -21 0
-29 5 -29 18 0 41 45 56 59 20z m-89 -78 c0 -11 -29 -40 -39 -40 -4 0 -20 13
-36 30 -22 23 -26 32 -16 43 10 12 17 11 51 -5 22 -11 40 -24 40 -28z m218 23
c2 -13 -7 -29 -24 -42 -24 -19 -30 -20 -48 -7 -30 19 -26 33 14 55 42 22 54
21 58 -6z m-120 -50 c3 -21 -1 -23 -37 -23 -33 0 -41 4 -41 18 0 27 10 33 45
30 22 -2 31 -9 33 -25z m-157 -40 c54 -20 61 -39 20 -60 -20 -9 -30 -9 -52 3
-28 14 -45 46 -34 64 8 13 9 13 66 -7z m306 1 c8 -21 -7 -46 -37 -61 -19 -9
-29 -9 -52 3 -40 21 -35 40 15 57 57 20 67 20 74 1z m-143 -40 c17 -43 8 -54
-44 -54 -43 0 -50 3 -50 19 0 40 11 51 50 51 25 0 40 -5 44 -16z m-158 -78
c35 9 45 -23 15 -48 -41 -33 -79 -21 -116 36 -18 28 -18 29 0 42 16 12 22 10
47 -11 21 -18 36 -23 54 -19z m342 11 c5 -24 -51 -77 -81 -77 -14 0 -35 8 -48
18 -31 26 -20 52 24 52 19 0 40 7 47 15 17 20 54 15 58 -8z m-1334 -19 c13
-19 14 -25 2 -43 -21 -31 -68 -27 -80 7 -18 52 46 82 78 36z m737 12 c29 -16
23 -27 -19 -34 -22 -3 -51 -15 -66 -27 -15 -12 -28 -20 -30 -18 -2 2 -9 15
-16 28 -19 36 -7 43 103 60 5 0 17 -4 28 -9z m852 -6 c29 -6 34 -23 16 -55
-10 -19 -10 -19 -36 1 -14 11 -43 23 -65 26 -40 7 -45 13 -26 32 11 11 29 11
111 -4z m-428 -44 c9 -42 0 -50 -56 -50 -55 0 -66 11 -50 53 9 24 16 27 55 27
41 0 45 -2 51 -30z m-589 -11 c8 -7 14 -24 12 -38 -2 -20 -9 -26 -32 -28 -51
-4 -60 -23 -58 -117 1 -61 -8 -131 -33 -262 -20 -99 -38 -211 -42 -249 -5 -69
-5 -71 21 -83 39 -18 31 -48 -11 -44 -35 4 -52 -12 -27 -26 14 -8 14 -12 -4
-48 -18 -36 -19 -52 -12 -224 5 -102 6 -187 4 -189 -3 -3 -11 2 -18 10 -16 16
-42 382 -29 402 5 7 9 28 10 47 3 56 39 284 67 419 19 89 26 154 26 235 0 93
3 116 19 140 11 17 17 34 15 38 -3 5 -3 16 0 25 5 12 15 14 42 10 20 -3 42
-11 50 -18z m1168 5 c3 -9 4 -20 0 -25 -3 -5 4 -21 15 -35 18 -23 21 -41 21
-140 0 -86 7 -149 30 -261 16 -82 35 -193 41 -248 6 -55 16 -106 21 -112 6 -7
7 -24 4 -39 -4 -14 -2 -32 4 -39 8 -9 8 -55 1 -162 -16 -218 -20 -251 -37
-257 -13 -5 -14 22 -8 198 6 178 5 206 -9 226 -12 17 -13 28 -6 42 15 27 3 39
-27 28 -34 -13 -34 -13 -34 14 0 25 24 41 42 29 18 -10 3 125 -33 307 -25 126
-32 189 -31 264 1 91 -1 100 -23 122 -18 18 -31 23 -50 18 -29 -7 -45 18 -28
45 23 37 96 54 107 25z m-827 -46 c17 -16 35 -22 64 -21 29 2 42 -3 46 -14 8
-22 -31 -53 -67 -53 -52 0 -122 80 -89 101 19 12 20 12 46 -13z m438 8 c19
-13 18 -16 -22 -55 -46 -46 -85 -53 -124 -23 -34 28 -19 56 25 48 28 -5 40 -2
63 18 33 30 34 30 58 12z m-190 -77 c8 -37 -4 -49 -55 -49 -50 0 -63 12 -55
48 6 28 11 31 48 34 54 4 54 4 62 -33z m-375 -43 c0 -5 -16 5 -35 24 -19 19
-35 38 -35 44 0 5 16 -5 35 -24 19 -19 35 -38 35 -44z m711 56 c-10 -19 -37
-44 -61 -57 -8 -4 3 11 25 34 43 45 51 50 36 23z m833 -58 c37 -37 1 -103 -49
-90 -14 4 -31 17 -37 31 -23 52 46 100 86 59z m-1414 -15 c33 -17 46 -19 64
-11 25 11 46 0 46 -25 0 -18 -78 -53 -99 -46 -32 12 -81 55 -81 72 0 37 15 39
70 10z m450 6 c28 -33 -71 -101 -120 -83 -42 14 -66 44 -51 62 10 12 18 12 36
4 19 -8 31 -7 62 10 47 25 57 26 73 7z m-207 -76 l2 -34 -53 -3 c-57 -3 -69 7
-58 52 5 21 13 25 49 28 52 4 58 -1 60 -43z m433 -73 c-28 -121 -90 -222 -169
-278 -28 -20 -26 -15 16 34 62 72 119 184 143 278 23 90 31 60 10 -34z m-894
-129 c17 -32 49 -78 71 -103 51 -57 43 -66 -11 -13 -73 69 -122 169 -136 274
-6 48 -6 48 20 -25 14 -41 39 -101 56 -133z m214 136 c22 -14 31 -15 61 -4 36
13 53 6 53 -24 0 -18 -80 -57 -104 -51 -38 9 -76 46 -76 72 0 29 28 32 66 7z
m461 1 c8 -21 -42 -71 -79 -79 -22 -5 -39 0 -69 19 -41 28 -44 33 -30 55 7 11
15 11 44 2 30 -10 41 -9 64 3 36 20 62 20 70 0z m-213 -45 c11 -58 11 -59 -54
-59 -65 0 -65 1 -54 59 6 29 9 31 54 31 45 0 48 -2 54 -31z m-134 -109 c0 -9
-10 -21 -22 -27 -105 -51 -119 -55 -133 -43 -18 15 -20 51 -3 68 7 7 23 12 38
13 14 0 41 6 60 13 38 13 60 5 60 -24z m260 16 c53 -8 70 -21 70 -51 0 -41
-24 -50 -73 -26 -24 12 -48 21 -54 21 -5 0 -18 9 -27 19 -23 25 -6 67 22 52 9
-4 37 -11 62 -15z m-130 -15 c0 -5 3 -23 6 -40 l7 -31 -62 0 c-33 0 -61 4 -61
9 0 5 3 23 6 40 6 30 9 31 55 31 27 0 49 -4 49 -9z m-456 -188 c23 -104 20
-184 -14 -345 -47 -219 -58 -277 -65 -350 -4 -38 -9 -68 -11 -68 -9 0 -110 43
-120 51 -8 7 -4 35 18 102 54 172 78 272 78 332 0 33 9 88 19 123 19 62 17 79
-7 42 -28 -45 -29 -15 -2 63 16 45 35 109 41 142 l12 60 17 -41 c10 -22 25
-72 34 -111z m924 -56 c27 -70 28 -89 3 -59 -26 30 -31 28 -20 -10 6 -18 17
-86 24 -150 9 -78 28 -164 56 -255 61 -201 62 -184 -13 -215 -35 -14 -66 -24
-70 -21 -5 2 -8 23 -8 46 0 56 -14 141 -55 334 -42 192 -45 299 -15 416 10 42
25 87 31 99 11 21 14 17 29 -52 9 -41 26 -101 38 -133z m-616 121 c-16 -16
-37 4 -28 28 6 16 8 16 23 1 13 -13 15 -19 5 -29z m238 12 c0 -13 -26 -19 -40
-10 -11 7 -11 11 -1 24 11 12 17 14 27 5 8 -6 14 -15 14 -19z m-70 -20 c0 -18
-7 -20 -70 -20 -63 0 -70 2 -70 20 0 18 7 20 70 20 63 0 70 -2 70 -20z m-153
-75 c-2 -5 -24 -17 -49 -25 -26 -8 -56 -24 -68 -35 -26 -24 -53 -11 -58 28 -5
40 29 67 82 67 25 0 48 5 52 11 8 13 45 -29 41 -46z m265 35 c43 0 78 -25 78
-55 0 -51 -24 -71 -50 -41 -6 8 -35 22 -63 32 -68 22 -73 27 -51 57 14 19 23
23 36 16 9 -5 32 -9 50 -9z m-128 -42 c12 -47 9 -49 -56 -46 -57 3 -63 5 -60
23 6 41 11 45 61 45 42 0 49 -3 55 -22z m-148 -97 c-10 -16 -36 -13 -43 5 -8
22 18 37 36 20 7 -8 10 -19 7 -25z m237 3 c-6 -16 -29 -19 -38 -4 -4 6 -1 17
5 26 15 18 42 0 33 -22z m-69 -3 c4 -5 3 -16 0 -25 -5 -13 -21 -16 -75 -16
-67 0 -69 1 -69 25 0 24 2 25 69 25 39 0 72 -4 75 -9z m-170 -65 c23 -36 11
-53 -48 -70 -29 -9 -61 -25 -71 -36 -22 -25 -44 -26 -61 -2 -19 25 -17 69 5
91 15 15 28 18 59 14 25 -3 49 0 68 10 16 9 30 16 30 17 1 0 9 -11 18 -24z
m242 8 c17 -12 36 -15 64 -10 32 5 44 2 60 -14 22 -22 26 -60 10 -91 -14 -25
-42 -24 -65 1 -10 11 -42 27 -72 36 -57 16 -66 34 -41 74 15 24 13 24 44 4z
m-92 -60 c4 -19 10 -42 13 -50 4 -11 -9 -14 -67 -14 l-72 0 6 31 c3 17 6 40 6
50 0 16 8 19 54 19 54 0 54 0 60 -36z m-157 -90 c3 -8 1 -20 -5 -26 -15 -15
-43 8 -35 28 7 19 32 18 40 -2z m250 0 c8 -20 -17 -36 -34 -22 -10 8 -10 14
-2 24 15 18 28 18 36 -2z m-69 -36 c-3 -21 -9 -23 -72 -26 -71 -3 -93 5 -83
32 5 13 23 16 82 16 73 0 76 -1 73 -22z m-172 -63 c20 -31 9 -47 -44 -63 -21
-6 -51 -25 -67 -42 -16 -16 -34 -30 -41 -30 -20 0 -44 42 -44 77 0 47 22 63
85 63 30 0 57 5 60 10 11 18 34 11 51 -15z m239 15 c3 -5 30 -10 60 -10 76 0
111 -41 83 -96 -23 -47 -43 -52 -72 -17 -16 19 -47 38 -76 48 -51 17 -59 30
-40 66 11 20 35 25 45 9z m-92 -52 c3 -18 8 -41 12 -50 6 -16 0 -18 -64 -18
l-72 0 6 38 c11 61 11 62 63 62 48 0 50 -1 55 -32z m-154 -97 c12 -21 5 -31
-21 -31 -11 0 -18 7 -18 18 0 35 23 43 39 13z m251 -11 c0 -13 -7 -20 -18 -20
-24 0 -32 8 -25 26 8 22 43 17 43 -6z m-72 -27 c-3 -27 -5 -28 -75 -31 -64 -3
-72 -1 -78 17 -11 34 3 41 81 41 l75 0 -3 -27z"/>
<path d="M2385 4340 c-10 -15 6 -109 21 -121 24 -20 35 0 28 54 -8 66 -31 96
-49 67z"/>
<path d="M2665 4338 c-3 -7 -6 -37 -8 -67 -4 -97 37 -70 45 30 2 35 0 44 -15
47 -9 2 -19 -2 -22 -10z"/>
<path d="M2204 4275 c-4 -9 5 -46 20 -81 14 -35 26 -66 26 -68 0 -5 -98 -66
-106 -66 -5 1 -34 38 -64 83 -54 80 -90 108 -90 70 0 -10 25 -56 55 -101 30
-46 55 -87 55 -91 0 -4 -19 -26 -42 -48 l-43 -42 -88 100 c-84 95 -108 112
-123 88 -7 -12 0 -22 105 -144 l73 -85 -36 -75 c-20 -41 -44 -102 -53 -137
-21 -77 -23 -231 -4 -308 30 -126 123 -272 221 -350 l42 -33 36 18 37 17 -25
16 c-14 9 -55 45 -91 81 -222 223 -220 578 4 810 119 123 262 184 432 184 83
0 113 -4 173 -26 217 -76 363 -242 408 -462 39 -195 -26 -388 -178 -530 l-80
-73 27 -18 c34 -22 58 -10 136 74 117 125 171 261 172 432 1 123 -17 200 -69
307 l-36 72 96 106 c53 57 96 109 96 115 0 6 -8 14 -17 17 -12 5 -42 -20 -112
-95 l-96 -103 -42 50 -42 49 60 86 c37 53 58 93 55 102 -10 26 -29 11 -91 -74
-33 -44 -62 -81 -65 -81 -3 0 -28 14 -57 32 l-52 32 30 68 c30 67 32 103 6 95
-6 -2 -27 -34 -45 -71 -17 -37 -38 -67 -46 -67 -7 0 -32 6 -54 14 -22 8 -65
17 -96 21 -55 7 -56 8 -56 39 0 68 -46 76 -52 9 l-3 -38 -65 -12 c-36 -6 -85
-18 -110 -27 -25 -8 -46 -12 -48 -8 -50 127 -75 163 -88 127z"/>
<path d="M1644 3985 c-8 -20 -5 -24 111 -124 105 -92 135 -107 135 -71 0 19
-210 210 -231 210 -5 0 -12 -7 -15 -15z"/>
<path d="M2523 3984 c-3 -8 -1 -20 5 -26 15 -15 43 8 35 28 -7 19 -32 18 -40
-2z"/>
<path d="M3307 3903 c-113 -92 -136 -124 -97 -130 22 -4 235 179 235 201 0 11
-5 21 -10 23 -6 2 -63 -40 -128 -94z"/>
<path d="M1503 3824 c-3 -8 -2 -19 3 -23 26 -25 279 -191 290 -191 22 0 23 28
1 47 -35 32 -263 183 -276 183 -6 0 -14 -7 -18 -16z"/>
<path d="M3410 3743 c-137 -92 -167 -123 -128 -131 26 -5 292 180 296 206 2
13 -2 22 -10 22 -8 0 -79 -44 -158 -97z"/>
<path d="M1424 3625 c-9 -23 3 -33 94 -76 242 -115 272 -126 272 -94 0 8 -10
21 -22 29 -22 14 -326 156 -334 156 -3 0 -7 -7 -10 -15z"/>
<path d="M3475 3561 c-168 -78 -200 -100 -179 -121 11 -11 49 4 262 106 86 40
113 58 110 71 -2 9 -7 18 -13 20 -5 1 -86 -33 -180 -76z"/>
<path d="M2061 3566 c-16 -19 -6 -36 20 -36 15 0 20 6 17 22 -4 27 -21 33 -37
14z"/>
<path d="M2984 3565 c-7 -18 3 -35 21 -35 18 0 26 25 12 39 -15 15 -27 14 -33
-4z"/>
<path d="M1215 3490 c-9 -15 3 -30 33 -42 92 -36 509 -178 524 -178 11 0 18 7
18 19 0 21 -41 37 -370 151 -184 63 -195 66 -205 50z"/>
<path d="M3650 3434 c-102 -36 -224 -79 -272 -96 -68 -24 -88 -35 -88 -49 0
-12 7 -19 19 -19 21 0 488 158 537 181 33 16 39 43 9 46 -11 1 -103 -28 -205
-63z"/>
<path d="M1274 3276 c-35 -15 -44 -32 -44 -80 0 -68 86 -101 145 -55 30 24 -2
26 355 -20 79 -11 148 -17 152 -15 11 7 10 32 -1 39 -6 3 -112 20 -238 37
l-228 31 -30 33 c-36 39 -70 48 -111 30z m70 -58 c8 -14 6 -22 -10 -38 -34
-34 -76 -2 -53 41 12 24 47 22 63 -3z"/>
<path d="M3790 3283 c-8 -3 -26 -18 -40 -34 -25 -29 -29 -30 -289 -66 -259
-36 -293 -45 -264 -74 6 -6 108 4 273 26 263 35 264 35 285 15 27 -26 74 -34
104 -18 41 22 38 38 -8 38 -30 0 -43 5 -51 20 -13 25 18 60 55 60 30 0 33 15
6 30 -21 11 -46 12 -71 3z"/>
<path d="M1950 3006 c-39 -14 -54 -46 -22 -46 37 0 83 22 80 38 -4 21 -17 23
-58 8z"/>
<path d="M3066 3004 c-7 -18 53 -47 88 -42 33 5 25 30 -14 44 -48 17 -67 17
-74 -2z"/>
<path d="M1537 2427 c-87 -56 -195 -125 -240 -152 -78 -48 -101 -76 -66 -83
17 -3 258 139 399 235 57 39 85 64 85 77 0 11 -4 21 -10 22 -5 1 -81 -43 -168
-99z"/>
<path d="M3370 2500 c0 -13 27 -37 88 -78 81 -55 254 -159 349 -212 41 -23 78
-22 71 3 -2 6 -80 58 -172 114 -93 56 -199 122 -237 147 -75 50 -99 57 -99 26z"/>
<path d="M1505 2204 c-60 -48 -113 -92 -117 -99 -4 -7 -2 -18 6 -24 10 -9 27
-1 74 33 110 81 187 147 187 159 0 33 -47 12 -150 -69z"/>
<path d="M3437 2275 c-6 -14 24 -40 181 -159 36 -27 69 -45 77 -42 34 13 17
33 -117 135 -107 82 -131 93 -141 66z"/>
<path d="M1525 2019 c-66 -61 -123 -117 -127 -124 -4 -7 -2 -18 6 -24 11 -9
24 -3 62 30 100 85 215 201 211 212 -9 29 -40 10 -152 -94z"/>
<path d="M3417 2116 c-6 -15 60 -84 205 -215 47 -42 78 -49 78 -17 0 15 -242
239 -264 244 -7 2 -16 -4 -19 -12z"/>
<path d="M1291 2061 c-23 -18 -25 -51 -3 -51 16 0 62 41 62 56 0 20 -30 17
-59 -5z"/>
<path d="M3752 2058 c4 -31 52 -58 70 -40 11 11 8 18 -15 38 -36 31 -59 32
-55 2z"/>
<path d="M1576 1791 c-34 -34 -47 -55 -42 -66 3 -9 14 -15 23 -13 21 4 105
106 98 119 -12 18 -32 8 -79 -40z"/>
<path d="M3447 1833 c-14 -13 -6 -31 34 -77 40 -45 79 -61 79 -31 0 16 -86
115 -100 115 -4 0 -10 -3 -13 -7z"/>
<path d="M828 2762 c-7 -27 6 -46 27 -39 10 4 15 15 13 29 -4 29 -34 36 -40
10z"/>
<path d="M4237 2774 c-4 -4 -7 -18 -7 -31 0 -18 5 -24 18 -21 10 2 17 12 17
27 0 24 -15 37 -28 25z"/>
<path d="M663 2754 c-7 -18 11 -39 26 -30 17 11 13 46 -4 46 -9 0 -18 -7 -22
-16z"/>
<path d="M744 2755 c-7 -18 3 -35 22 -35 8 0 14 10 14 25 0 27 -27 35 -36 10z"/>
<path d="M4314 2755 c-7 -18 3 -35 22 -35 8 0 14 10 14 25 0 27 -27 35 -36 10z"/>
<path d="M4397 2757 c-3 -8 -1 -20 3 -27 11 -18 41 5 33 26 -7 18 -29 18 -36
1z"/>
<path d="M2524 1119 c-10 -17 13 -36 27 -22 12 12 4 33 -11 33 -5 0 -12 -5
-16 -11z"/>
<path d="M2230 961 c0 -12 8 -21 23 -24 l22 -4 -22 -8 c-21 -7 -23 -13 -23
-86 0 -64 3 -79 15 -79 8 0 15 -4 15 -10 0 -5 5 -10 11 -10 8 0 10 33 5 113
-3 61 -5 115 -6 120 0 4 -9 7 -20 7 -13 0 -20 -7 -20 -19z"/>
<path d="M1420 865 c0 -87 3 -105 15 -105 8 0 15 -4 15 -10 0 -5 5 -10 10 -10
6 0 10 20 10 45 0 44 0 45 34 45 30 0 33 2 28 25 -3 20 -10 25 -33 25 -22 0
-29 5 -29 20 0 17 7 20 40 20 39 0 39 1 28 25 -10 22 -17 25 -65 25 l-53 0 0
-105z"/>
<path d="M2850 950 c0 -13 7 -20 18 -20 33 0 42 -22 42 -97 0 -66 2 -73 20
-73 11 0 20 -4 20 -10 0 -5 5 -10 10 -10 6 0 10 37 10 90 0 88 1 90 24 90 19
0 22 4 18 25 -4 24 -7 25 -83 25 -72 0 -79 -2 -79 -20z"/>
<path d="M1570 840 c0 -73 2 -80 20 -80 11 0 20 -4 20 -10 0 -5 5 -10 10 -10
6 0 10 21 10 48 0 61 9 92 26 92 8 0 14 9 14 20 0 22 -12 25 -40 10 -13 -7
-21 -7 -25 0 -3 5 -13 10 -21 10 -11 0 -14 -17 -14 -80z"/>
<path d="M1723 912 c-20 -12 1 -32 31 -29 46 3 41 -18 -6 -29 -39 -8 -43 -12
-46 -41 -2 -22 3 -37 19 -52 22 -20 66 -30 55 -12 -3 5 0 14 7 19 10 8 17 6
27 -8 27 -38 40 -24 40 44 0 82 -23 116 -78 116 -20 0 -42 -4 -49 -8z m67 -97
c0 -9 -7 -18 -16 -22 -18 -7 -39 11 -30 26 11 17 46 13 46 -4z"/>
<path d="M1880 840 c0 -72 2 -80 19 -80 11 0 21 -6 24 -12 9 -26 16 -1 18 70
2 39 6 72 9 72 21 -1 34 -25 38 -74 3 -39 9 -56 18 -56 8 0 14 -4 14 -10 0 -5
5 -10 10 -10 6 0 10 28 10 64 0 49 -5 69 -21 90 -22 27 -66 35 -86 15 -8 -8
-13 -8 -17 0 -4 6 -14 11 -22 11 -11 0 -14 -17 -14 -80z"/>
<path d="M2090 900 c-14 -14 -20 -33 -20 -64 0 -37 5 -48 31 -70 17 -14 43
-26 57 -26 21 0 24 2 12 10 -13 8 -12 10 3 10 10 0 17 8 17 19 0 15 -7 19 -32
17 -27 -1 -34 3 -36 22 -2 13 2 30 10 39 9 12 10 15 1 9 -7 -4 -13 -3 -13 2 0
14 28 23 32 10 2 -5 13 -8 25 -6 17 2 19 7 12 26 -11 29 -70 31 -99 2z"/>
<path d="M2321 906 c-20 -24 -9 -59 26 -81 42 -26 41 -38 -2 -33 -29 3 -35 1
-35 -14 0 -10 7 -18 15 -18 8 0 15 -4 15 -10 0 -5 15 -10 33 -9 27 0 29 2 12
9 -18 8 -18 9 5 10 14 2 29 2 33 1 4 -1 10 5 13 13 9 23 -23 72 -56 86 -35 15
-39 30 -7 30 18 0 19 -2 7 -10 -11 -7 -7 -10 17 -10 29 0 32 2 24 23 -10 28
-80 37 -100 13z"/>
<path d="M2471 894 c-49 -62 0 -154 82 -154 16 0 18 3 9 9 -11 7 -11 9 2 14
25 10 8 36 -22 34 -24 -2 -27 2 -27 30 0 17 -4 29 -9 26 -5 -3 -6 0 -4 8 3 10
18 13 49 11 28 -2 39 0 31 6 -7 5 -12 15 -10 23 2 10 -9 15 -38 17 -35 3 -45
-1 -63 -24z"/>
<path d="M2621 894 c-12 -15 -21 -40 -21 -56 0 -40 57 -98 97 -98 15 0 23 4
17 8 -8 5 -4 13 12 25 23 17 32 12 17 -9 -5 -5 0 -1 10 9 21 24 22 59 2 97
-29 57 -99 69 -134 24z m75 -24 c19 0 18 -54 -1 -70 -19 -16 -30 -5 -38 36 -6
29 13 69 21 44 2 -5 10 -10 18 -10z"/>
<path d="M3050 900 c-13 -13 -20 -33 -20 -56 0 -47 54 -104 97 -103 24 0 26 1
8 9 -12 5 -14 9 -6 9 8 1 23 9 34 19 19 17 20 16 7 -8 -12 -23 -12 -24 3 -12
36 30 30 99 -13 142 -27 27 -83 27 -110 0z m90 -66 c0 -25 -24 -49 -41 -39 -6
4 -9 22 -7 40 2 19 0 31 -4 29 -4 -3 -8 -1 -8 5 0 17 23 18 42 2 10 -9 18 -25
18 -37z"/>
<path d="M3220 840 c0 -73 2 -80 20 -80 11 0 20 -4 20 -10 0 -5 5 -10 10 -10
6 0 10 21 10 48 0 61 9 92 26 92 8 0 14 9 14 20 0 22 -12 25 -40 10 -13 -7
-21 -7 -25 0 -3 5 -13 10 -21 10 -11 0 -14 -17 -14 -80z"/>
<path d="M3350 840 c0 -73 2 -80 20 -80 11 0 20 -4 20 -10 0 -5 5 -10 10 -10
6 0 10 17 10 39 0 21 3 53 6 71 6 27 11 31 30 27 19 -3 22 -1 14 13 -5 10 -6
20 -3 24 10 10 -27 7 -48 -4 -13 -7 -19 -7 -19 0 0 5 -9 10 -20 10 -18 0 -20
-7 -20 -80z"/>
<path d="M3501 901 c-23 -23 -28 -79 -11 -112 14 -25 62 -49 97 -48 25 0 26 1
8 9 -17 7 -17 9 -2 9 10 1 17 9 17 20 0 17 -5 19 -34 14 -19 -3 -36 -1 -40 6
-4 6 0 11 8 11 9 0 16 5 16 10 0 6 14 10 31 10 17 0 28 -4 24 -10 -3 -5 1 -10
10 -10 14 0 16 6 11 28 -18 73 -91 107 -135 63z m73 -26 c4 -11 -2 -15 -26
-15 -26 0 -29 2 -18 15 7 8 18 15 25 15 7 0 15 -7 19 -15z"/>
<path d="M3666 905 c-24 -24 -20 -41 19 -72 44 -35 44 -47 0 -40 -25 4 -35 2
-35 -7 0 -20 45 -46 77 -45 24 0 25 2 9 8 -19 7 -19 8 2 13 11 3 23 1 25 -6 3
-6 8 -4 12 7 13 30 -4 67 -40 89 -37 21 -45 38 -19 38 8 0 12 -4 9 -10 -4 -6
7 -10 27 -10 18 0 29 4 23 8 -5 4 -10 14 -10 22 0 22 -78 26 -99 5z"/>
<path d="M2120 550 c-14 -27 9 -27 41 0 l24 19 -27 1 c-17 0 -31 -7 -38 -20z"/>
<path d="M2890 551 c0 -12 8 -21 23 -24 l22 -4 -22 -8 c-21 -7 -23 -13 -23
-86 0 -64 3 -79 15 -79 8 0 15 -4 15 -10 0 -5 5 -10 11 -10 8 0 10 33 5 113
-3 61 -5 115 -6 120 0 4 -9 7 -20 7 -13 0 -20 -7 -20 -19z"/>
<path d="M3490 555 c0 -9 10 -20 23 -25 l22 -9 -22 -7 c-21 -6 -23 -12 -23
-85 0 -64 3 -79 15 -79 8 0 15 -4 15 -10 0 -5 5 -10 11 -10 9 0 10 27 6 94 -4
68 -2 96 6 100 9 3 8 5 0 5 -7 1 -13 10 -13 21 0 13 -7 20 -20 20 -11 0 -20
-7 -20 -15z"/>
<path d="M3760 460 c0 -102 1 -110 19 -110 11 0 22 -6 24 -12 8 -19 8 164 1
201 -5 21 -12 31 -25 31 -17 0 -19 -9 -19 -110z"/>
<path d="M4210 550 c-14 -27 9 -27 41 0 l24 19 -27 1 c-17 0 -31 -7 -38 -20z"/>
<path d="M794 548 c-43 -20 -58 -102 -29 -157 15 -31 69 -61 107 -61 19 0 20
2 8 11 -12 8 -9 9 11 5 72 -16 93 116 30 183 -23 25 -37 31 -68 30 -21 0 -48
-5 -59 -11z m93 -50 c20 -16 16 -75 -7 -98 -42 -42 -75 -14 -68 55 4 31 2 43
-6 38 -6 -4 -5 1 3 11 15 18 53 15 78 -6z m38 -137 c-3 -6 -11 -11 -17 -11 -6
0 -6 6 2 15 14 17 26 13 15 -4z"/>
<path d="M2700 455 c0 -87 3 -105 15 -105 8 0 15 -4 15 -10 0 -5 5 -10 10 -10
6 0 10 18 10 39 0 53 14 59 39 18 19 -32 66 -66 76 -56 2 3 -5 21 -16 40 -11
19 -25 46 -32 62 -6 15 -15 27 -20 27 -5 0 8 23 28 50 36 49 36 50 13 50 -14
0 -35 -14 -55 -37 l-31 -38 -7 38 c-5 27 -12 37 -26 37 -17 0 -19 -9 -19 -105z"/>
<path d="M1136 513 c-14 -18 -16 -28 -8 -31 7 -2 12 -24 12 -56 0 -42 5 -57
23 -74 32 -30 62 -29 65 2 1 16 -5 25 -18 29 -15 4 -20 14 -20 41 0 33 3 36
28 36 18 0 23 3 14 9 -8 4 -13 11 -13 15 3 20 -1 26 -19 26 -11 0 -20 7 -20
15 0 23 -23 17 -44 -12z"/>
<path d="M1982 513 c-13 -14 -19 -29 -14 -32 5 -3 11 -30 14 -60 6 -60 33 -91
78 -90 14 0 20 3 14 5 -7 3 -10 14 -7 24 4 14 0 20 -11 20 -12 0 -16 10 -16
40 0 32 4 40 19 40 14 0 17 6 13 25 -3 15 -11 25 -22 25 -10 0 -20 7 -24 15
-8 21 -18 19 -44 -12z"/>
<path d="M992 498 c-23 -23 -14 -57 23 -80 44 -29 44 -41 0 -36 -23 3 -35 0
-35 -8 0 -18 46 -44 77 -43 l28 1 -25 7 -25 7 27 6 c16 3 29 0 31 -6 3 -6 8
-3 12 7 13 30 -4 67 -40 89 -38 22 -45 38 -17 38 14 0 15 -2 2 -10 -11 -7 -7
-10 17 -10 29 0 32 2 24 23 -6 17 -17 23 -47 25 -22 2 -45 -3 -52 -10z"/>
<path d="M1271 484 c-31 -40 -27 -80 13 -120 26 -26 42 -34 68 -33 27 0 30 2
13 9 -19 8 -19 9 3 9 15 1 22 7 22 21 0 17 -5 19 -25 14 -14 -3 -32 -3 -41 0
-14 5 -14 8 0 21 16 17 66 21 66 5 0 -5 5 -10 10 -10 27 0 -4 92 -35 104 -37
14 -74 6 -94 -20z m79 -19 c11 -13 8 -15 -19 -15 -30 0 -39 9 -24 23 11 11 30
8 43 -8z"/>
<path d="M1450 492 c-17 -13 -23 -30 -24 -61 -1 -38 4 -47 34 -72 19 -16 46
-29 60 -29 18 0 21 3 11 9 -11 7 -8 11 10 17 13 4 29 8 34 9 15 0 18 54 4 86
-23 57 -85 77 -129 41z m78 -74 c-2 -25 -8 -33 -23 -33 -16 0 -20 7 -20 32 0
17 -3 29 -7 26 -5 -2 -8 0 -8 6 0 5 8 14 17 19 24 14 45 -11 41 -50z"/>
<path d="M1620 395 c0 -96 3 -115 15 -115 8 0 15 -4 15 -10 0 -5 5 -10 10 -10
6 0 10 20 10 44 l0 44 31 -11 c28 -11 33 -10 55 16 29 34 31 71 4 115 -25 40
-44 49 -81 35 -16 -7 -29 -7 -29 -2 0 5 -7 9 -15 9 -12 0 -15 -19 -15 -115z
m88 73 c27 -27 2 -102 -28 -83 -13 8 -13 52 0 60 5 3 7 12 3 20 -6 18 8 20 25
3z m42 -113 c-7 -8 -20 -15 -29 -15 -11 0 -8 5 9 14 33 19 35 19 20 1z"/>
<path d="M1815 500 c-12 -19 6 -29 37 -23 22 4 29 3 24 -5 -4 -7 -1 -12 6 -13
7 -1 -5 -5 -26 -10 -22 -5 -45 -14 -53 -20 -23 -19 -15 -56 16 -78 28 -20 67
-29 57 -13 -2 4 -1 14 4 22 7 12 12 10 28 -8 31 -36 42 -27 42 33 0 60 -19
109 -45 119 -26 10 -83 7 -90 -4z m75 -89 c0 -5 -7 -14 -15 -21 -18 -15 -42 1
-31 19 8 13 46 15 46 2z"/>
<path d="M2110 430 c0 -64 3 -80 15 -80 8 0 15 -4 15 -10 0 -5 5 -10 10 -10
11 0 14 100 4 149 -5 21 -12 31 -25 31 -17 0 -19 -8 -19 -80z"/>
<path d="M2213 502 c-20 -12 1 -32 31 -29 46 3 41 -18 -6 -29 -37 -8 -43 -13
-46 -38 -4 -36 31 -76 67 -75 14 0 20 3 13 6 -10 4 -10 8 -2 19 10 11 15 10
33 -6 11 -11 24 -20 29 -20 4 0 8 29 8 64 0 82 -23 116 -78 116 -20 0 -42 -4
-49 -8z m67 -97 c0 -9 -7 -18 -16 -22 -18 -7 -39 11 -30 26 11 17 46 13 46 -4z"/>
<path d="M2430 505 c0 -2 13 -38 30 -79 31 -79 31 -101 -1 -111 -10 -4 -19
-13 -19 -21 0 -21 44 -17 65 6 10 11 21 17 25 15 11 -7 21 22 14 39 -3 8 -1
23 6 33 9 15 10 14 4 -7 -11 -40 3 -20 24 38 11 29 16 52 10 52 -6 0 -8 9 -5
20 4 16 0 20 -17 20 -18 0 -25 -9 -37 -47 l-15 -48 -22 48 c-15 34 -27 47 -41
47 -12 0 -21 -2 -21 -5z"/>
<path d="M2829 493 c-13 -16 -12 -17 4 -4 16 13 21 21 13 21 -2 0 -10 -8 -17
-17z"/>
<path d="M2980 430 c0 -64 3 -80 15 -80 8 0 15 -4 15 -10 0 -5 4 -10 9 -10 4
0 11 32 14 71 7 80 10 87 32 69 10 -8 15 -30 15 -66 0 -47 2 -54 20 -54 11 0
20 -4 20 -10 0 -5 5 -10 10 -10 6 0 10 26 10 58 0 98 -47 146 -111 112 -13 -7
-19 -7 -19 0 0 5 -7 10 -15 10 -12 0 -15 -16 -15 -80z"/>
<path d="M3180 488 c-23 -25 -27 -84 -7 -108 23 -29 61 -50 92 -49 24 0 26 2
11 8 -19 7 -19 8 2 13 12 4 22 13 22 21 0 12 -9 14 -40 10 -43 -6 -49 0 -26
23 17 16 66 19 66 4 0 -5 5 -10 10 -10 19 0 10 49 -16 79 -32 39 -82 43 -114
9z m77 -25 c3 -9 -4 -12 -21 -11 -26 2 -32 9 -19 22 10 10 36 3 40 -11z"/>
<path d="M3346 495 c-24 -24 -20 -41 19 -72 44 -35 44 -47 0 -40 -25 4 -35 2
-35 -7 0 -20 45 -46 77 -45 25 0 26 1 8 9 -11 5 -15 9 -8 9 6 1 19 4 29 8 13
5 15 3 9 -7 -5 -9 -4 -11 3 -6 30 18 7 78 -38 101 -32 17 -40 35 -14 35 8 0
12 -4 9 -10 -4 -6 7 -10 27 -10 18 0 29 4 23 8 -5 4 -10 14 -10 22 0 22 -78
26 -99 5z"/>
<path d="M3590 488 c-37 -40 -18 -122 35 -146 29 -13 68 -17 48 -4 -8 5 -3 11
14 19 22 10 24 10 19 -5 -5 -13 -3 -13 9 2 29 38 10 134 -30 150 -34 12 -75 6
-95 -16z m90 -63 c0 -23 -18 -45 -36 -45 -19 0 -27 36 -14 61 8 15 9 19 1 15
-6 -4 -11 -3 -11 3 0 17 23 18 42 2 10 -9 18 -25 18 -36z"/>
<path d="M3860 488 c-32 -35 -27 -83 14 -124 23 -23 43 -34 63 -33 24 0 26 1
8 9 -12 5 -14 9 -6 9 8 1 23 9 34 19 19 17 20 16 7 -8 -12 -23 -12 -24 3 -12
36 30 30 99 -13 142 -27 27 -83 27 -110 -2z m90 -64 c0 -25 -24 -49 -41 -39
-6 4 -9 22 -7 40 2 19 0 31 -4 29 -4 -3 -8 -1 -8 5 0 17 23 18 42 2 10 -9 18
-25 18 -37z"/>
<path d="M4035 490 c-13 -14 -15 -26 -10 -47 13 -43 11 -84 -2 -95 -23 -18
-14 -48 20 -68 17 -11 39 -20 47 -20 12 0 12 2 1 9 -9 6 -5 10 15 14 61 12 68
14 72 25 7 22 -27 70 -55 77 -27 6 -27 7 -9 21 24 17 40 18 30 2 -5 -7 -3 -8
5 -3 8 4 11 21 9 41 -2 19 0 34 4 34 4 0 8 7 8 15 0 25 -112 21 -135 -5z m70
-35 c0 -28 -27 -25 -32 3 -2 18 1 23 14 20 10 -2 18 -12 18 -23z m3 -125 c19
0 23 -3 15 -11 -14 -14 -65 -7 -71 10 -3 10 0 12 12 8 10 -4 29 -7 44 -7z"/>
<path d="M4200 430 c0 -64 3 -80 15 -80 8 0 15 -4 15 -10 0 -5 5 -10 10 -10
11 0 14 100 4 149 -5 21 -12 31 -25 31 -17 0 -19 -8 -19 -80z"/>
<path d="M4303 502 c-20 -12 1 -32 31 -29 46 3 41 -18 -6 -29 -37 -8 -43 -13
-46 -38 -4 -36 31 -76 67 -75 14 0 20 3 13 6 -10 4 -10 8 -2 19 10 11 15 10
33 -6 11 -11 24 -20 29 -20 4 0 8 29 8 64 0 82 -23 116 -78 116 -20 0 -42 -4
-49 -8z m67 -97 c0 -9 -7 -18 -16 -22 -18 -7 -39 11 -30 26 11 17 46 13 46 -4z"/>
<path d="M2509 283 c-13 -16 -12 -17 4 -4 16 13 21 21 13 21 -2 0 -10 -8 -17
-17z"/>
</g>
</svg>
