<?xml version="1.0" standalone="no"?>
<!DOCTYPE svg PUBLIC "-//W3C//DTD SVG 20010904//EN"
 "http://www.w3.org/TR/2001/REC-SVG-20010904/DTD/svg10.dtd">
<svg version="1.0" xmlns="http://www.w3.org/2000/svg"
 width="500.000000pt" height="500.000000pt" viewBox="0 0 500.000000 500.000000"
 preserveAspectRatio="xMidYMid meet">

<g transform="translate(0.000000,500.000000) scale(0.100000,-0.100000)"
fill="#000000" stroke="none">
<path d="M2250 3911 c-309 -67 -578 -278 -723 -566 -174 -348 -134 -778 102
-1092 59 -79 202 -223 221 -223 5 0 93 63 196 141 l186 141 19 -31 c19 -31 19
-32 -6 -81 -14 -28 -29 -50 -34 -50 -4 0 -29 -19 -55 -41 -54 -47 -96 -123
-99 -177 -3 -58 23 -47 45 20 17 50 87 148 106 148 4 0 15 -14 24 -31 14 -24
24 -30 44 -27 38 4 57 36 41 68 -7 14 -22 26 -34 28 l-22 3 22 37 c11 20 21
38 22 40 1 1 21 0 44 -4 l41 -7 0 -191 c0 -198 6 -230 34 -207 13 11 16 35 16
117 0 57 3 104 7 104 4 0 24 -12 46 -27 40 -28 77 -83 97 -146 8 -27 17 -37
28 -35 21 5 18 46 -8 105 -22 49 -95 124 -139 143 -31 12 -31 13 -31 87 l0 75
38 -30 c20 -17 113 -94 207 -171 93 -78 175 -141 182 -141 42 0 -4 49 -191
204 -202 168 -203 169 -192 197 13 35 0 39 213 -61 l168 -78 18 -54 c10 -29
21 -74 24 -100 9 -72 19 -74 104 -19 218 140 399 390 466 646 33 129 38 333
10 465 -65 306 -270 579 -543 722 -164 85 -254 108 -454 113 -126 4 -171 1
-240 -14z m352 -229 c70 -25 139 -71 174 -118 17 -21 38 -75 55 -137 l28 -102
-21 -37 -21 -36 51 -82 c28 -45 48 -89 45 -96 -3 -8 -22 -19 -43 -25 -33 -10
-39 -16 -44 -48 -4 -20 -6 -45 -7 -56 0 -11 -7 -27 -16 -37 -11 -12 -13 -27
-9 -51 11 -59 -8 -71 -118 -77 -85 -5 -100 -9 -138 -36 -51 -36 -104 -110
-118 -167 -26 -105 -28 -104 -29 3 l-1 105 51 83 c38 61 60 86 84 96 18 8 36
19 40 26 11 18 -3 58 -26 70 -26 15 -69 -11 -69 -41 0 -12 -17 -48 -37 -82
l-38 -61 -3 199 c-1 109 -1 199 0 201 2 1 22 -2 45 -9 77 -20 160 21 194 97
14 31 19 65 19 137 0 83 -3 102 -26 147 -59 118 -179 151 -284 80 -18 -13 -40
-36 -50 -53 -9 -16 -34 -49 -57 -72 -64 -65 -68 -133 -12 -205 21 -27 29 -48
29 -78 0 -52 23 -107 61 -146 20 -21 30 -40 27 -54 -3 -21 -7 -20 -81 30 -131
88 -184 185 -175 324 3 41 14 91 25 118 26 57 93 131 148 163 94 56 235 66
347 27z m-78 -81 c30 -17 73 -67 65 -76 -3 -2 -20 1 -37 7 -25 10 -42 10 -77
0 -38 -10 -51 -10 -75 3 -16 8 -38 15 -50 15 -43 0 -6 43 57 65 42 15 73 11
117 -14z m-137 -104 c2 -2 -10 -19 -27 -37 -30 -32 -30 -33 -24 -111 l7 -79
-30 11 c-103 35 -114 178 -18 220 19 8 82 5 92 -4z m163 -12 c56 -29 67 -93
24 -144 -25 -30 -79 -49 -109 -37 -12 4 -10 10 10 30 30 30 33 84 8 122 -14
22 -14 27 -2 35 20 12 36 11 69 -6z m-106 -51 c20 -19 21 -58 2 -74 -43 -35
-99 28 -61 70 22 24 38 25 59 4z m147 -162 c-31 -58 -107 -84 -165 -57 -29 14
-36 23 -36 46 l0 28 35 -15 c46 -19 93 -18 135 4 41 21 45 20 31 -6z m-253
-47 c2 -2 2 -29 0 -61 l-3 -59 -22 45 c-13 25 -23 55 -23 68 0 20 4 22 23 16
12 -3 23 -8 25 -9z m-53 -294 c-14 -98 -87 -201 -176 -247 l-33 -17 17 24 c10
13 34 57 54 98 32 65 38 86 41 162 l4 87 50 -31 49 -30 -6 -46z m55 -141 c0
-137 -2 -160 -15 -160 -62 0 -276 -116 -388 -211 l-38 -32 18 39 c9 22 36 66
59 99 35 50 56 68 126 107 131 73 206 165 224 276 4 23 8 42 10 42 2 0 4 -72
4 -160z m-462 28 c3 -17 -11 -18 -197 -18 -122 0 -202 4 -206 10 -16 26 13 30
203 28 178 -3 197 -5 200 -20z m1570 0 c3 -17 -11 -18 -197 -18 -195 0 -201 1
-201 20 0 20 5 20 197 18 179 -3 198 -5 201 -20z m-888 -153 c-13 -54 -12
-142 1 -166 5 -11 28 -33 51 -49 26 -19 35 -31 27 -34 -8 -2 -36 -9 -64 -16
-27 -7 -58 -14 -67 -17 -11 -2 -18 1 -18 9 0 7 -9 24 -20 38 -41 52 -16 168
51 241 21 23 41 40 43 38 3 -3 1 -22 -4 -44z m-220 -135 c0 -45 -4 -60 -14
-60 -24 0 -74 -49 -88 -85 -6 -19 -15 -35 -19 -35 -9 0 -188 -132 -286 -212
l-73 -58 -2 32 c-3 67 4 144 17 174 21 52 182 182 295 239 50 25 144 62 163
64 4 1 7 -26 7 -59z m89 -126 c47 -60 10 -144 -64 -144 -25 0 -44 8 -60 25
-56 55 -16 145 64 145 31 0 44 -6 60 -26z m306 -61 c47 -44 100 -111 93 -118
-3 -3 -67 24 -143 59 -125 59 -135 65 -109 71 16 4 43 11 59 15 50 14 59 11
100 -27z"/>
<path d="M1256 2868 c-51 -73 48 -151 103 -82 12 15 21 35 21 45 0 54 -93 81
-124 37z"/>
<path d="M3567 2872 c-21 -23 -22 -61 -1 -90 12 -18 24 -22 51 -20 92 8 90
128 -1 128 -19 0 -40 -8 -49 -18z"/>
<path d="M1670 1530 c0 -102 1 -110 19 -110 17 0 20 8 23 48 3 45 4 47 37 52
49 7 51 28 4 32 -33 3 -38 6 -38 28 0 22 5 25 38 28 24 2 37 8 37 18 0 11 -14
14 -60 14 l-60 0 0 -110z"/>
<path d="M2302 1623 c2 -10 10 -18 18 -18 8 0 16 8 18 18 2 12 -3 17 -18 17
-15 0 -20 -5 -18 -17z"/>
<path d="M2817 1634 c-10 -11 3 -24 24 -24 17 0 19 -8 19 -95 0 -88 2 -95 20
-95 18 0 20 8 22 93 3 87 4 92 26 95 12 2 22 10 22 18 0 11 -15 14 -63 14 -35
0 -67 -3 -70 -6z"/>
<path d="M1800 1494 c0 -67 2 -74 20 -74 16 0 19 8 22 58 3 53 5 57 26 54 18
-1 23 2 20 15 -2 14 -14 18 -46 20 l-42 1 0 -74z"/>
<path d="M1921 1561 c-21 -13 -5 -29 24 -23 37 7 32 -23 -6 -37 -27 -9 -30
-14 -27 -43 3 -32 5 -33 51 -35 l47 -2 0 63 c0 35 -5 67 -12 74 -14 14 -57 16
-77 3z m40 -114 c-7 -7 -12 -5 -17 7 -4 11 -1 21 7 27 17 11 26 -18 10 -34z"/>
<path d="M2040 1494 c0 -67 2 -74 20 -74 16 0 19 8 22 57 4 81 28 85 28 4 0
-59 1 -61 26 -61 27 0 27 0 21 66 -2 36 -8 68 -11 71 -3 4 -29 8 -56 9 l-50 2
0 -74z"/>
<path d="M2196 1555 c-19 -20 -22 -105 -4 -123 18 -18 88 -16 88 2 0 10 -9 14
-27 13 -27 -2 -28 0 -31 46 -3 48 -3 49 25 45 20 -2 28 1 28 12 0 22 -58 25
-79 5z"/>
<path d="M2300 1495 c0 -68 2 -75 20 -75 18 0 20 7 20 75 0 68 -2 75 -20 75
-18 0 -20 -7 -20 -75z"/>
<path d="M2382 1558 c-22 -22 -14 -57 18 -73 40 -21 39 -39 -1 -31 -25 5 -30
3 -27 -12 2 -12 15 -18 41 -20 31 -3 39 1 49 22 9 22 8 29 -7 46 -10 11 -26
22 -36 25 -28 9 -23 28 6 23 29 -6 45 10 24 23 -20 12 -53 11 -67 -3z"/>
<path d="M2502 1558 c-7 -7 -12 -35 -12 -63 0 -28 5 -56 12 -63 18 -18 88 -16
88 2 0 10 -9 14 -27 13 -27 -2 -28 0 -31 47 -3 47 -2 48 22 44 15 -3 27 0 30
8 9 24 -60 34 -82 12z"/>
<path d="M2620 1551 c-14 -27 -13 -104 2 -119 17 -17 73 -15 88 4 8 8 13 35
13 59 0 24 -5 51 -13 59 -18 23 -77 21 -90 -3z m58 -58 c-2 -27 -7 -48 -13
-48 -5 0 -11 21 -13 48 -3 38 0 47 13 47 13 0 16 -9 13 -47z"/>
<path d="M2979 1553 c-15 -17 -18 -86 -7 -115 11 -26 84 -25 98 1 15 30 12 97
-6 115 -20 21 -68 20 -85 -1z m59 -58 c2 -23 -2 -41 -10 -46 -16 -10 -28 8
-28 47 0 59 33 58 38 -1z"/>
<path d="M3100 1493 c0 -66 2 -73 20 -73 16 0 19 8 22 58 3 52 5 57 26 55 15
-2 22 3 22 15 0 15 -8 19 -45 19 l-45 0 0 -74z"/>
<path d="M3210 1494 c0 -67 2 -74 20 -74 16 0 19 8 22 58 3 53 5 57 26 54 18
-1 23 2 20 15 -2 14 -14 18 -46 20 l-42 1 0 -74z"/>
<path d="M3332 1558 c-16 -16 -16 -110 0 -126 18 -18 98 -16 98 3 0 11 -9 14
-32 13 -28 -3 -34 1 -36 20 -3 19 1 22 33 22 36 0 37 1 30 27 -4 16 -11 34
-17 40 -13 16 -60 17 -76 1z m58 -33 c0 -8 -7 -15 -15 -15 -8 0 -15 7 -15 15
0 8 7 15 15 15 8 0 15 -7 15 -15z"/>
<path d="M3462 1558 c-20 -20 -14 -46 18 -70 37 -27 38 -40 3 -36 -20 2 -28
-2 -28 -12 0 -19 61 -26 81 -9 25 20 17 57 -16 74 -37 19 -40 39 -5 32 20 -3
25 -1 23 12 -4 20 -58 27 -76 9z"/>
<path d="M1225 1230 c-23 -4 -33 -13 -42 -40 -15 -44 -16 -85 -3 -129 12 -42
24 -51 70 -51 46 0 58 9 70 51 13 44 12 85 -3 128 -13 38 -41 51 -92 41z m53
-107 c-3 -76 -4 -78 -28 -78 -23 0 -25 4 -28 54 -5 78 3 101 34 101 25 0 25
-1 22 -77z"/>
<path d="M2789 1227 c-8 -8 -23 -33 -33 -55 -19 -41 -19 -42 6 -99 21 -48 30
-59 52 -61 l27 -3 -30 60 -31 60 20 47 c21 49 15 77 -11 51z"/>
<path d="M3536 1233 c-3 -4 -6 -55 -6 -115 0 -101 1 -108 20 -108 19 0 20 7
20 109 0 84 -3 110 -14 114 -8 3 -17 3 -20 0z"/>
<path d="M2222 1205 c-15 -34 3 -43 27 -13 11 12 17 26 14 30 -9 16 -30 7 -41
-17z"/>
<path d="M2690 1121 c0 -105 1 -111 20 -111 20 0 21 5 18 107 -3 93 -5 108
-20 111 -16 3 -18 -7 -18 -107z"/>
<path d="M2862 1213 c2 -10 10 -18 18 -18 8 0 16 8 18 18 2 12 -3 17 -18 17
-15 0 -20 -5 -18 -17z"/>
<path d="M3322 1213 c2 -10 10 -18 18 -18 8 0 16 8 18 18 2 12 -3 17 -18 17
-15 0 -20 -5 -18 -17z"/>
<path d="M3894 1205 c-4 -14 -3 -29 0 -32 10 -10 49 34 42 46 -13 20 -35 12
-42 -14z"/>
<path d="M1483 1164 c-27 -29 -28 -34 -8 -34 11 0 15 -12 15 -49 0 -59 7 -81
26 -81 11 0 14 16 14 65 0 51 3 65 15 65 8 0 15 3 15 6 0 6 -49 55 -53 53 -1
-1 -12 -12 -24 -25z"/>
<path d="M2113 1164 c-27 -29 -28 -34 -8 -34 11 0 15 -12 15 -49 0 -59 7 -81
26 -81 11 0 14 16 14 65 0 51 3 65 15 65 8 0 15 3 15 6 0 6 -49 55 -53 53 -1
-1 -12 -12 -24 -25z"/>
<path d="M1362 1148 c-20 -20 -14 -46 18 -70 37 -27 38 -40 3 -36 -20 2 -28
-2 -28 -12 0 -19 61 -26 81 -9 25 20 17 57 -16 74 -37 19 -40 40 -4 31 21 -6
25 -4 22 11 -4 22 -57 30 -76 11z"/>
<path d="M1580 1141 c-14 -27 -13 -104 2 -119 17 -17 98 -16 98 2 0 9 -11 13
-32 12 -27 -1 -34 3 -36 22 -3 19 1 22 32 22 31 0 36 3 36 24 0 14 -7 32 -16
40 -22 23 -71 20 -84 -3z m60 -26 c0 -8 -7 -15 -15 -15 -8 0 -15 7 -15 15 0 8
7 15 15 15 8 0 15 -7 15 -15z"/>
<path d="M1719 1143 c-15 -17 -18 -86 -7 -115 11 -26 84 -25 98 1 15 30 12 97
-6 115 -20 21 -68 20 -85 -1z m59 -58 c2 -23 -2 -41 -10 -46 -16 -10 -28 8
-28 47 0 59 33 58 38 -1z"/>
<path d="M1840 1049 c0 -101 1 -109 19 -109 15 0 21 8 23 33 2 27 8 33 31 35
20 2 31 12 38 30 10 26 7 98 -5 110 -4 3 -29 7 -56 8 l-50 2 0 -109z m76 55
c7 -28 -9 -74 -26 -74 -11 0 -14 83 -3 93 13 13 23 7 29 -19z"/>
<path d="M1987 1153 c-15 -15 -5 -29 20 -28 34 0 42 -22 9 -31 -35 -8 -49 -29
-42 -59 6 -23 11 -25 56 -25 l50 0 0 53 c0 64 -20 97 -59 97 -15 0 -31 -3 -34
-7z m53 -87 c0 -16 -18 -31 -27 -22 -8 8 5 36 17 36 5 0 10 -6 10 -14z"/>
<path d="M2200 1085 c0 -68 2 -75 20 -75 18 0 20 7 20 75 0 68 -2 75 -20 75
-18 0 -20 -7 -20 -75z"/>
<path d="M2281 1151 c-21 -13 -5 -29 24 -23 37 7 32 -23 -6 -37 -27 -9 -30
-14 -27 -43 3 -32 5 -33 51 -35 l47 -2 0 63 c0 35 -5 67 -12 74 -14 14 -57 16
-77 3z m40 -114 c-7 -7 -12 -5 -17 7 -4 11 -1 21 7 27 17 11 26 -18 10 -34z"/>
<path d="M2470 1157 c0 -2 11 -36 24 -75 19 -56 23 -79 16 -104 -11 -35 -8
-43 12 -35 8 2 26 48 41 101 31 111 32 116 13 116 -9 0 -21 -19 -29 -47 l-14
-48 -13 48 c-9 35 -17 47 -31 47 -11 0 -19 -1 -19 -3z"/>
<path d="M2860 1085 c0 -68 2 -75 20 -75 18 0 20 7 20 75 0 68 -2 75 -20 75
-18 0 -20 -7 -20 -75z"/>
<path d="M2930 1084 c0 -67 2 -74 20 -74 18 0 20 7 20 60 0 47 3 60 15 60 12
0 15 -13 15 -60 0 -53 2 -60 20 -60 18 0 20 7 20 64 0 74 -8 84 -67 83 l-43 0
0 -73z"/>
<path d="M3082 1148 c-16 -16 -16 -110 0 -126 18 -18 98 -16 98 3 0 11 -9 14
-32 13 -28 -3 -34 1 -36 20 -3 19 1 22 33 22 36 0 37 1 30 27 -4 16 -11 34
-17 40 -13 16 -60 17 -76 1z m58 -33 c0 -8 -7 -15 -15 -15 -8 0 -15 7 -15 15
0 8 7 15 15 15 8 0 15 -7 15 -15z"/>
<path d="M3212 1148 c-20 -20 -14 -46 18 -70 37 -27 38 -40 3 -36 -20 2 -28
-2 -28 -12 0 -19 61 -26 81 -9 25 20 17 57 -16 74 -37 19 -40 39 -5 32 20 -3
25 -1 23 12 -4 20 -58 27 -76 9z"/>
<path d="M3320 1085 c0 -68 2 -75 20 -75 18 0 20 7 20 75 0 68 -2 75 -20 75
-18 0 -20 -7 -20 -75z"/>
<path d="M3400 1141 c-14 -27 -13 -104 2 -119 17 -17 73 -15 88 4 8 8 13 35
13 59 0 24 -5 51 -13 59 -18 23 -77 21 -90 -3z m58 -58 c-2 -27 -7 -48 -13
-48 -5 0 -11 21 -13 48 -3 38 0 47 13 47 13 0 16 -9 13 -47z"/>
<path d="M3609 1143 c-15 -17 -18 -86 -7 -115 11 -26 84 -25 98 1 15 30 12 97
-6 115 -20 21 -68 20 -85 -1z m59 -58 c2 -23 -2 -41 -10 -46 -16 -10 -28 8
-28 47 0 59 33 58 38 -1z"/>
<path d="M3740 1145 c-8 -9 -10 -28 -6 -52 4 -21 8 -50 9 -65 2 -24 6 -28 35
-28 22 0 32 -5 32 -15 0 -11 -11 -15 -36 -15 -47 0 -41 -24 8 -28 71 -6 94 63
28 85 -26 9 -29 12 -13 12 28 1 57 44 50 73 -4 12 -1 28 5 35 8 10 -1 13 -45
13 -36 0 -59 -5 -67 -15z m64 -30 c8 -21 -3 -45 -20 -45 -9 0 -14 11 -14 30 0
32 23 42 34 15z"/>
<path d="M3880 1086 c0 -70 2 -76 20 -76 19 0 21 5 18 72 -2 60 -6 73 -20 76
-16 3 -18 -6 -18 -72z"/>
<path d="M3957 1153 c-15 -15 -6 -31 14 -26 12 4 25 0 30 -8 6 -10 -1 -18 -24
-29 -25 -12 -32 -21 -32 -45 0 -29 1 -30 50 -30 l50 0 -1 57 c-1 32 -7 65 -14
73 -13 15 -61 21 -73 8z m42 -105 c-8 -14 -14 -17 -22 -9 -7 7 -6 15 3 25 17
22 32 9 19 -16z"/>
</g>
</svg>
