<?xml version="1.0" standalone="no"?>
<!DOCTYPE svg PUBLIC "-//W3C//DTD SVG 20010904//EN"
 "http://www.w3.org/TR/2001/REC-SVG-20010904/DTD/svg10.dtd">
<svg version="1.0" xmlns="http://www.w3.org/2000/svg"
 width="512.000000pt" height="512.000000pt" viewBox="0 0 512.000000 512.000000"
 preserveAspectRatio="xMidYMid meet">

<g transform="translate(0.000000,512.000000) scale(0.100000,-0.100000)"
fill="#000000" stroke="none">
<path d="M2304 4866 c-55 -7 -105 -16 -112 -20 -21 -12 -37 -55 -82 -213 l-44
-151 -60 -17 c-96 -27 -226 -79 -347 -140 l-110 -56 -159 86 c-170 92 -181 95
-227 52 -32 -28 -31 -80 2 -112 13 -14 29 -25 34 -25 5 0 83 -40 173 -90 89
-49 170 -90 178 -90 8 0 35 11 60 25 156 89 371 178 517 215 24 6 51 20 61 30
10 11 38 90 63 176 38 137 47 157 69 167 32 14 446 14 479 0 20 -8 31 -33 72
-173 30 -104 54 -169 65 -177 10 -8 37 -18 59 -24 143 -36 360 -126 515 -214
25 -14 52 -25 60 -25 8 0 84 38 168 84 l153 84 61 -50 c74 -62 195 -183 259
-260 l47 -57 -84 -153 c-46 -84 -84 -160 -84 -168 0 -8 11 -35 25 -60 89 -156
178 -371 215 -517 6 -24 19 -51 30 -61 10 -10 86 -37 168 -61 82 -24 154 -46
161 -50 21 -13 34 -245 22 -388 -6 -74 -15 -129 -22 -134 -6 -3 -77 -26 -158
-49 -80 -23 -156 -48 -167 -55 -15 -10 -28 -39 -44 -97 -42 -159 -107 -312
-205 -488 -14 -25 -25 -52 -25 -60 0 -8 38 -84 84 -168 l85 -153 -58 -67 c-76
-87 -266 -270 -295 -284 -20 -9 -44 1 -173 71 -82 45 -157 81 -167 81 -10 0
-44 -16 -76 -35 -101 -61 -241 -123 -375 -166 -71 -22 -144 -47 -162 -54 -34
-15 -26 5 -109 -272 l-24 -82 -58 -7 c-74 -10 -330 -10 -404 0 l-58 7 -24 82
c-14 45 -37 121 -51 170 -30 101 -29 100 -175 141 -118 34 -280 101 -385 161
-44 25 -90 48 -102 51 -17 5 -66 -17 -174 -76 -131 -71 -155 -81 -175 -72 -29
14 -219 197 -295 284 l-58 67 85 153 c46 84 84 160 84 168 0 8 -11 35 -25 60
-67 118 -138 275 -171 380 -57 180 -65 200 -84 210 -10 5 -86 29 -170 54 -83
24 -154 47 -156 49 -3 3 -10 61 -15 130 -12 143 1 374 21 387 7 4 79 27 161
51 82 23 158 51 169 61 10 10 24 37 30 61 37 146 126 361 215 517 14 25 25 52
25 60 0 8 -40 88 -89 176 -49 89 -92 171 -96 183 -7 23 -53 51 -83 51 -28 0
-69 -35 -76 -66 -6 -21 10 -58 79 -184 l86 -159 -56 -110 c-61 -121 -113 -251
-140 -347 l-17 -61 -151 -43 c-186 -53 -203 -61 -216 -102 -14 -46 -31 -233
-31 -347 0 -126 19 -318 35 -358 14 -34 33 -41 287 -114 l76 -22 17 -61 c27
-96 79 -226 140 -347 l56 -111 -82 -147 c-50 -90 -82 -158 -82 -177 -1 -22 13
-49 48 -95 70 -91 265 -289 365 -370 113 -91 115 -91 300 12 l145 80 145 -70
c135 -64 236 -104 336 -130 l40 -11 44 -152 c53 -188 61 -204 102 -217 46 -14
234 -31 348 -31 114 0 302 17 348 31 41 13 49 30 102 214 l42 150 117 38 c64
21 181 69 261 108 l145 70 146 -81 c103 -56 156 -80 180 -80 45 1 162 95 319
256 150 154 214 238 213 278 0 19 -32 87 -82 177 l-82 147 56 111 c61 121 113
251 140 347 l17 62 97 27 c230 65 252 74 266 108 16 40 35 232 35 358 0 114
-17 301 -31 347 -13 41 -30 49 -216 102 l-151 44 -17 60 c-27 96 -79 226 -140
347 l-56 110 86 159 c67 124 84 164 80 183 -22 85 -438 501 -523 522 -18 4
-63 -15 -182 -80 l-159 -86 -110 56 c-121 61 -251 113 -347 140 l-60 17 -44
151 c-45 157 -61 201 -82 213 -24 15 -238 33 -378 33 -80 -1 -190 -7 -246 -13z"/>
<path d="M922 4197 c-46 -49 -10 -137 56 -137 39 0 82 43 82 82 0 67 -92 104
-138 55z"/>
<path d="M2414 3979 c-304 -29 -607 -170 -835 -386 -401 -382 -544 -946 -373
-1474 161 -500 602 -879 1122 -965 129 -22 349 -21 471 0 488 87 895 414 1080
868 223 544 89 1164 -338 1571 -232 220 -518 351 -843 387 -108 11 -164 11
-284 -1z m352 -174 c467 -81 848 -408 994 -854 92 -283 78 -610 -40 -884 -100
-231 -253 -416 -456 -553 -81 -54 -224 -126 -276 -139 l-28 -7 0 319 0 319 55
11 c94 20 183 71 260 148 340 341 123 921 -356 952 -107 7 -209 -14 -296 -61
l-63 -34 -74 38 c-420 210 -899 -170 -791 -629 37 -157 148 -296 293 -369 45
-22 102 -44 127 -48 l45 -6 0 -320 0 -320 -27 7 c-53 13 -196 85 -277 139
-259 174 -440 433 -521 746 -37 143 -45 351 -20 501 45 268 162 497 354 690
185 186 419 308 676 353 109 19 312 20 421 1z m-377 -877 l50 -23 -34 -54
c-45 -70 -74 -159 -82 -248 -5 -67 -4 -73 20 -97 33 -33 79 -34 111 -3 17 18
24 39 29 92 13 143 100 264 235 328 61 29 76 32 163 32 90 0 99 -2 171 -37 91
-45 147 -103 191 -196 29 -61 32 -76 32 -162 0 -86 -3 -101 -32 -162 -64 -135
-185 -222 -328 -235 -53 -5 -74 -12 -92 -29 l-23 -23 0 -395 0 -395 -37 -8
c-49 -10 -357 -10 -405 0 l-38 8 0 395 0 395 -23 23 c-17 17 -39 24 -91 29
-142 13 -259 95 -324 225 -35 72 -37 81 -37 171 0 87 3 102 32 163 17 37 50
87 72 111 44 47 134 101 197 117 65 16 186 5 243 -22z"/>
</g>
</svg>
