<?xml version="1.0" standalone="no"?>
<!DOCTYPE svg PUBLIC "-//W3C//DTD SVG 20010904//EN"
 "http://www.w3.org/TR/2001/REC-SVG-20010904/DTD/svg10.dtd">
<svg version="1.0" xmlns="http://www.w3.org/2000/svg"
 width="512.000000pt" height="512.000000pt" viewBox="0 0 512.000000 512.000000"
 preserveAspectRatio="xMidYMid meet">

<g transform="translate(0.000000,512.000000) scale(0.100000,-0.100000)"
fill="#000000" stroke="none">
<path d="M2052 4829 c-98 -19 -194 -97 -243 -197 -20 -39 -24 -63 -24 -142 0
-82 4 -103 26 -150 33 -70 99 -136 169 -169 47 -22 68 -26 150 -26 79 0 103 4
142 24 105 51 175 141 198 255 36 175 -80 355 -257 401 -62 16 -96 17 -161 4z
m149 -105 c111 -33 190 -156 174 -269 -17 -111 -113 -204 -221 -213 -84 -7
-141 14 -200 72 -116 117 -95 299 45 383 75 45 120 51 202 27z"/>
<path d="M1587 4006 c-92 -33 -160 -106 -184 -198 -17 -67 -19 -891 -2 -952 6
-22 29 -56 55 -82 l44 -45 0 -114 0 -114 -173 -3 c-162 -3 -176 -5 -222 -29
-98 -50 -158 -172 -137 -279 12 -59 56 -224 67 -253 7 -16 -4 -17 -137 -17
l-145 0 40 42 c22 23 52 67 66 97 22 47 26 70 26 146 0 78 -4 97 -28 146 -104
212 -378 266 -550 109 -98 -90 -136 -220 -102 -346 18 -66 66 -143 109 -174
19 -14 11 -15 -96 -20 -129 -6 -151 -15 -196 -80 -19 -29 -22 -46 -22 -137 0
-84 4 -111 20 -143 22 -43 80 -80 125 -80 24 0 25 -2 25 -66 0 -36 5 -75 11
-87 20 -39 72 -86 106 -98 l33 -11 0 -419 c0 -406 1 -420 20 -439 22 -22 37
-25 60 -10 13 8 16 71 20 437 l5 428 115 0 115 0 3 -421 c2 -411 3 -422 23
-440 19 -17 23 -17 47 -3 l27 15 3 427 2 427 370 0 370 0 0 -423 c0 -398 1
-425 18 -440 24 -22 45 -21 65 1 15 17 17 62 17 435 l0 417 180 0 180 0 -5
-42 c-3 -24 -12 -212 -21 -417 l-16 -375 22 -18 c28 -23 43 -23 63 0 14 15 19
75 32 367 8 193 18 383 21 422 l6 73 74 0 74 0 0 -420 c0 -407 1 -421 20 -440
24 -24 39 -25 66 -6 18 14 19 32 22 435 l3 421 175 0 176 0 -6 -97 c-3 -54
-11 -206 -16 -338 -5 -132 -12 -275 -16 -317 -5 -69 -3 -79 15 -97 24 -24 40
-26 66 -8 16 13 20 49 36 398 10 211 18 403 19 427 l0 42 795 0 795 0 2 -427
3 -427 27 -15 c24 -14 28 -14 47 3 20 18 21 29 23 440 l3 421 115 0 115 0 5
-428 c4 -366 7 -429 20 -437 23 -15 38 -12 60 10 19 19 20 33 20 439 l0 419
33 11 c39 13 91 64 106 104 6 16 11 55 11 88 0 57 1 59 25 59 45 0 103 37 125
80 16 32 20 59 20 143 0 91 -3 108 -22 137 -45 66 -67 75 -198 78 l-118 4 17
31 c13 26 17 71 19 227 4 216 -2 251 -50 306 -92 104 -249 104 -336 -1 -37
-45 -52 -96 -52 -174 l0 -61 -37 5 c-21 3 -74 10 -118 16 -44 6 -287 44 -540
84 -253 41 -505 80 -560 87 l-100 14 -3 372 -2 372 413 0 413 0 52 26 c108 54
132 118 132 351 0 205 -9 243 -70 304 -146 146 -370 42 -370 -173 l0 -68 -359
0 -359 0 -4 88 c-5 103 -29 154 -102 219 -83 73 -86 73 -645 73 -391 -1 -504
-4 -534 -14z m1045 -96 c86 -24 138 -101 138 -204 l0 -64 -52 -12 c-29 -6 -71
-22 -94 -35 l-42 -24 -6 31 c-8 41 -23 58 -51 58 -48 0 -52 -19 -59 -260 -4
-124 -9 -240 -12 -257 l-6 -33 -334 0 -334 0 0 265 c0 251 -1 265 -19 275 -61
32 -81 2 -81 -126 l0 -104 -95 0 -95 0 0 163 c0 178 8 221 47 268 58 69 55 69
583 69 297 0 489 -4 512 -10z m1246 -86 c43 -28 52 -70 52 -244 0 -175 -7
-206 -55 -250 l-27 -25 -435 -5 -435 -5 -29 -33 -29 -32 0 -205 0 -205 -100 0
c-55 0 -100 3 -100 6 0 3 5 24 11 48 22 90 -45 200 -136 225 l-40 11 7 117 c5
65 13 136 19 158 15 55 52 101 102 128 41 22 48 22 493 25 l451 3 29 30 c25
26 29 38 34 118 4 70 9 94 25 111 44 49 109 59 163 24z m-2198 -642 c0 -95 4
-143 13 -155 11 -15 55 -17 450 -19 l439 -3 24 -28 c26 -31 32 -90 11 -118
-29 -38 -43 -39 -552 -39 -547 0 -542 0 -564 61 -7 19 -11 112 -11 235 l0 204
95 0 95 0 0 -138z m739 -519 c0 -84 -17 -125 -59 -145 -31 -16 -72 -18 -397
-18 l-363 0 0 110 0 110 410 0 410 0 -1 -57z m501 -188 l0 -245 -315 0 -315 0
0 85 0 85 33 0 c99 1 197 103 197 207 0 21 3 55 6 75 l6 36 194 2 194 1 0
-246z m1748 -31 c46 -32 52 -61 52 -249 0 -196 -6 -221 -63 -255 -31 -19 -54
-20 -554 -20 l-523 0 0 176 0 176 28 -6 c47 -10 521 -84 645 -101 133 -18 172
-12 207 32 16 20 20 41 20 95 0 77 17 128 51 152 30 20 108 21 137 0z m-4046
-6 c56 -17 121 -78 148 -139 69 -161 -53 -343 -230 -342 -166 0 -283 156 -236
314 39 136 178 209 318 167z m1558 -123 l0 -84 -517 -3 -518 -3 -32 -22 c-17
-13 -34 -23 -38 -23 -4 0 -6 26 -3 58 5 71 34 117 92 143 38 17 75 19 529 19
l487 0 0 -85z m1118 -2 l182 -27 0 -183 0 -183 -211 0 c-197 0 -211 1 -204 18
4 9 10 42 12 72 4 47 0 63 -26 114 -28 52 -31 67 -31 143 l0 86 48 -6 c26 -4
129 -19 230 -34z m-1428 -288 l0 -105 -335 0 c-360 0 -375 2 -401 51 -29 56
-5 127 50 149 11 5 171 9 354 9 l332 1 0 -105z m1050 90 c66 -34 76 -121 19
-169 l-31 -26 -469 0 -469 0 0 105 0 105 460 0 c393 0 465 -2 490 -15z m2077
-311 c21 -13 23 -22 23 -101 0 -66 -4 -91 -17 -105 -15 -17 -105 -18 -2444
-18 -2194 0 -2429 2 -2443 16 -12 12 -16 37 -16 104 0 75 3 91 19 102 15 11
465 13 2437 15 2106 1 2422 0 2441 -13z m-147 -379 c0 -46 -4 -60 -25 -80
l-24 -25 -2241 0 -2241 0 -24 25 c-21 20 -25 34 -25 80 l0 55 2290 0 2290 0 0
-55z"/>
</g>
</svg>
